<svg xmlns="http://www.w3.org/2000/svg" width="88" height="66" fill="none"  xmlns:v="https://vecta.io/nano"><path d="M28.626 45.426c1.317 1.376 1.978 3.257 1.978 5.645v13.645h-4.933V52.317c0-1.48-.336-2.591-1.01-3.333s-1.569-1.111-2.683-1.111c-1.304 0-2.323.438-3.054 1.314s-1.098 1.994-1.098 3.354v12.172h-4.891V52.317c0-1.39-.34-2.478-1.021-3.264s-1.616-1.178-2.804-1.178c-1.218 0-2.192.445-2.924 1.337s-1.098 2.003-1.098 3.333v12.172H.112V44.025h4.542l.261 2.222c.594-.892 1.401-1.595 2.422-2.109a7.17 7.17 0 0 1 3.271-.77c1.448 0 2.745.348 3.89 1.042s1.969 1.648 2.477 2.856c.595-1.238 1.448-2.199 2.564-2.879s2.413-1.019 3.89-1.019c2.148-.005 3.879.684 5.198 2.058zm6.596 3.276a9.98 9.98 0 0 1 3.848-3.92c1.644-.945 3.516-1.418 5.618-1.418s3.978.473 5.629 1.418a9.99 9.99 0 0 1 3.856 3.92c.919 1.669 1.381 3.554 1.381 5.654 0 2.07-.46 3.944-1.381 5.621a9.98 9.98 0 0 1-3.848 3.932c-1.647.945-3.525 1.417-5.64 1.417-2.102 0-3.974-.472-5.618-1.417s-2.926-2.252-3.848-3.92-1.379-3.547-1.379-5.633c0-2.1.46-3.983 1.381-5.654zm5.335 10.188c1.072 1.194 2.449 1.791 4.128 1.791 1.724 0 3.123-.597 4.194-1.791s1.609-2.72 1.609-4.578-.537-3.381-1.609-4.566-2.471-1.779-4.194-1.779c-1.695 0-3.074.592-4.139 1.779s-1.598 2.708-1.598 4.566.537 3.386 1.609 4.578zm18.681-10.188a9.98 9.98 0 0 1 3.848-3.92c1.644-.945 3.516-1.418 5.618-1.418s3.978.473 5.629 1.418a9.99 9.99 0 0 1 3.856 3.92c.919 1.669 1.381 3.554 1.381 5.654 0 2.07-.46 3.944-1.381 5.621a9.98 9.98 0 0 1-3.848 3.932c-1.647.945-3.525 1.417-5.64 1.417-2.102 0-3.974-.472-5.618-1.417s-2.926-2.252-3.848-3.92-1.381-3.547-1.381-5.633c.004-2.1.464-3.983 1.383-5.654zm5.335 10.188c1.072 1.194 2.449 1.791 4.128 1.791 1.724 0 3.123-.597 4.195-1.791s1.609-2.72 1.609-4.578-.537-3.381-1.609-4.566-2.471-1.779-4.195-1.779c-1.695 0-3.076.592-4.139 1.779s-1.598 2.708-1.598 4.566.537 3.386 1.609 4.578zm18.45-26.02H88v31.844h-4.977V32.87z" fill="#fff"/><path d="M61.403.829c-6.515 0-12.758 2.515-17.592 7.087C38.976 3.343 32.735.829 26.22.829 11.762.829 0 13.095 0 28.173v.138h3.222v-.138c0-13.225 10.316-23.984 22.997-23.984 5.671 0 11.114 2.176 15.34 6.131a27.72 27.72 0 0 0-2.298 3.224c-3.562-3.46-8.188-5.361-13.041-5.361-10.568 0-19.165 8.966-19.165 19.988v.138h3.222v-.138c0-9.169 7.152-16.627 15.943-16.627 4.34 0 8.398 1.796 11.432 5.057a27.88 27.88 0 0 0-1.501 4.213c-2.292-3.356-5.985-5.352-9.932-5.352-6.721 0-12.188 5.702-12.188 12.711v.138h3.222v-.138c0-5.156 4.022-9.351 8.966-9.351s8.966 4.195 8.966 9.351v.138h3.222v-.138c0-2.934.504-5.797 1.498-8.516 1.479 2.575 2.259 5.511 2.259 8.516v.138h3.297v-.138a17.09 17.09 0 0 1 2.259-8.516c.995 2.72 1.498 5.582 1.498 8.516v.138h3.222v-.138c0-5.156 4.022-9.351 8.966-9.351s8.966 4.195 8.966 9.351v.138h3.222v-.138c0-7.009-5.468-12.711-12.188-12.711-3.949 0-7.64 1.994-9.932 5.352-.387-1.443-.891-2.858-1.501-4.213 3.034-3.261 7.092-5.057 11.432-5.057 8.791 0 15.943 7.459 15.943 16.627v.138h3.222v-.138c0-11.022-8.597-19.988-19.165-19.988-4.853 0-9.479 1.904-13.041 5.361-.69-1.132-1.461-2.215-2.298-3.224 4.228-3.955 9.669-6.131 15.34-6.131 12.681 0 22.997 10.759 22.997 23.984v.138h3.222v-.138C87.622 13.095 75.861.829 61.403.829zM46.107 16.144c-.922 1.27-1.693 2.651-2.298 4.105a20.3 20.3 0 0 0-2.298-4.105c.665-1.192 1.439-2.335 2.298-3.4.862 1.065 1.633 2.208 2.298 3.4z" fill="#00ce7f"/></svg>